<svg xmlns="http://www.w3.org/2000/svg" width="55" height="55" viewBox="0 0 55 55">
    <path fill="#FFF" fill-rule="evenodd" d="M25.487.056A28.4 28.4 0 0 1 27.245 0c12.39 0 22.874 8.254 26.269 19.573a27.414 27.414 0 0 0-11.833 12.09 27.198 27.198 0 0 0-2.406 7.298 27.498 27.498 0 0 0 .775 12.86A27.22 27.22 0 0 1 27.246 55c-7.787 0-14.82-3.26-19.814-8.493a27.253 27.253 0 0 0 4.03-.491 26.908 26.908 0 0 0 5.275-1.624 27.346 27.346 0 0 0 14.012-13.463 27.182 27.182 0 0 0 2.373-8.035c.39-2.923.31-5.91-.244-8.807a27.198 27.198 0 0 0-2.57-7.404 27.474 27.474 0 0 0-4.82-6.627h-.001zm28.91 20.755c.395 1.92.603 3.913.603 5.956 0 9.994-4.962 18.777-12.433 23.774-.327-1.2-.57-2.424-.727-3.66a27.29 27.29 0 0 1 .249-8.477 26.567 26.567 0 0 1 2.35-6.965 25.898 25.898 0 0 1 4.886-6.755 24.723 24.723 0 0 1 5.073-3.873zM22.768 0c.167.152.332.307.497.461a25.675 25.675 0 0 1 5.085 6.782 25.82 25.82 0 0 1 2.392 6.891c.533 2.755.618 5.602.253 8.384a25.791 25.791 0 0 1-2.173 7.498 25.67 25.67 0 0 1-5.232 7.434 25.008 25.008 0 0 1-7.746 5.203 24.316 24.316 0 0 1-9.557 1.942c-.174 0-.344-.003-.517-.006C2.156 39.865 0 33.92 0 27.464 0 13.657 9.857 2.181 22.767 0z"/>
</svg>
